<svg xmlns="http://www.w3.org/2000/svg" viewBox="0 0 87.45 87.45"><defs><style>.cls-1{fill:#ff0aba;}</style></defs><title>facebook</title><g id="Layer_2" data-name="Layer 2"><g id="TYPO"><path class="cls-1" d="M9.94,0H77.51a9.61,9.61,0,0,1,8.38,4.66,11.32,11.32,0,0,1,1.55,5.9V76.89a10.4,10.4,0,0,1-4.35,8.82,9.34,9.34,0,0,1-5.59,1.74H9.94a9.61,9.61,0,0,1-8.39-4.66A11.31,11.31,0,0,1,0,76.89V10.56A10.4,10.4,0,0,1,4.35,1.74,9.34,9.34,0,0,1,9.94,0ZM47.7,14l-2.61,1a11.78,11.78,0,0,0-6,5,15.39,15.39,0,0,0-2,7.89v8.14H27.88V46.77h9.25V74.22H48.19V46.77h9.25q.06-.43,1.37-10.68H48.19v-6A11.25,11.25,0,0,1,48.44,27a3.14,3.14,0,0,1,.44-1.06,3.38,3.38,0,0,1,2-1.49A10.52,10.52,0,0,1,54.28,24h4.91V14.47a71.45,71.45,0,0,0-8-.44H47.7Z"/></g></g></svg>