<svg xmlns="http://www.w3.org/2000/svg" viewBox="0 0 87.45 87.45"><defs><style>.cls-1{fill:#ff0aba;}</style></defs><title>instagram</title><g id="Layer_2" data-name="Layer 2"><g id="TYPO"><path class="cls-1" d="M9.94,0H77.51a9.61,9.61,0,0,1,8.38,4.66,11.32,11.32,0,0,1,1.55,5.9V76.89a10.4,10.4,0,0,1-4.35,8.82,9.34,9.34,0,0,1-5.59,1.74H9.94a9.61,9.61,0,0,1-8.39-4.66A11.31,11.31,0,0,1,0,76.89V10.56A10.4,10.4,0,0,1,4.35,1.74,9.34,9.34,0,0,1,9.94,0ZM20,31.05V58.57a9.77,9.77,0,0,0,1.05,5A7.84,7.84,0,0,0,22.79,66a9.16,9.16,0,0,0,6.46,2.55h29a9.18,9.18,0,0,0,6.65-2.73,9.32,9.32,0,0,0,2.61-6.89V30.68a9.65,9.65,0,0,0-1.68-5.84,8.57,8.57,0,0,0-3-2.61A8.47,8.47,0,0,0,58.38,21H29.13A9,9,0,0,0,22,24.41a8.83,8.83,0,0,0-1.86,3.91A13.82,13.82,0,0,0,20,31.05Zm11.61,8.82a.06.06,0,0,1,.06.06,13,13,0,0,0,11.8,17.82H44a12.71,12.71,0,0,0,8.2-3.17,12.84,12.84,0,0,0,2-2.24A12.68,12.68,0,0,0,56.77,45v-.37a13.45,13.45,0,0,0-.93-4.72h7a.06.06,0,0,1,.06.06V59.5a4.51,4.51,0,0,1-2.17,3.73,5.28,5.28,0,0,1-3,.68H29.81a5,5,0,0,1-3.17-.81q-.19,0-1.12-1a4.45,4.45,0,0,1-.93-2.73V39.94l.06-.06Zm11.92-3.48H44a8.28,8.28,0,0,1,6.09,2.86A8.33,8.33,0,0,1,43.72,53.1a8.3,8.3,0,0,1-6.33-2.92,8.37,8.37,0,0,1,.37-11.24A8.11,8.11,0,0,1,43.54,36.39ZM62,26.46l.06.06v7.95a.05.05,0,0,1-.06.06H61q-2.24,0-7,.06V26.52H54Z"/></g></g></svg>