<svg xmlns="http://www.w3.org/2000/svg" viewBox="0 0 87.45 87.45"><defs><style>.cls-1{fill:#ff0aba;}</style></defs><title>linkedin</title><g id="Layer_2" data-name="Layer 2"><g id="TYPO"><path class="cls-1" d="M9.94,0H77.51a9.61,9.61,0,0,1,8.38,4.66,11.32,11.32,0,0,1,1.55,5.9V76.89a10.4,10.4,0,0,1-4.35,8.82,9.34,9.34,0,0,1-5.59,1.74H9.94a9.61,9.61,0,0,1-8.39-4.66A11.31,11.31,0,0,1,0,76.89V10.56A10.4,10.4,0,0,1,4.35,1.74,9.34,9.34,0,0,1,9.94,0Zm8.69,23.54a6.18,6.18,0,0,0,2.24,4.78A6.25,6.25,0,0,0,25,29.81a6.11,6.11,0,0,0,4.91-2.42,6.35,6.35,0,0,0,1.3-3.91,6.22,6.22,0,0,0-2.79-5.22,6.74,6.74,0,0,0-3.48-1,6.31,6.31,0,0,0-6.27,6.27Zm.87,11.05V69.44H30.37V34.59Zm28.13,4.78h-.06a.05.05,0,0,1-.06-.06V34.59H37.14V69.44H47.95V53.23q0-4.6.68-6.21a5.45,5.45,0,0,1,5.65-3.79h.43a4.63,4.63,0,0,1,4.6,3,7.68,7.68,0,0,1,.56,2.24,37.54,37.54,0,0,1,.19,5.15V69.44H70.93V50q0-8.88-3.11-12.55t-10-3.79a12.09,12.09,0,0,0-7.76,2.73,11.49,11.49,0,0,0-1.68,1.74C48.09,38.59,47.84,39,47.64,39.38Z"/></g></g></svg>