<svg xmlns="http://www.w3.org/2000/svg" viewBox="0 0 87.45 87.45"><defs><style>.cls-1{fill:#ff0aba;}</style></defs><title>twitter</title><g id="Layer_2" data-name="Layer 2"><g id="TYPO"><path class="cls-1" d="M9.94,0H77.51a9.61,9.61,0,0,1,8.38,4.66,11.32,11.32,0,0,1,1.55,5.9V76.89a10.4,10.4,0,0,1-4.35,8.82,9.34,9.34,0,0,1-5.59,1.74H9.94a9.61,9.61,0,0,1-8.39-4.66A11.31,11.31,0,0,1,0,76.89V10.56A10.4,10.4,0,0,1,4.35,1.74,9.34,9.34,0,0,1,9.94,0ZM44,34.28v.25a12.76,12.76,0,0,0,.31,2.55h-.06a39.11,39.11,0,0,1-5.09-.62,39,39,0,0,1-5.71-1.74,34.19,34.19,0,0,1-10.87-7.08q-1.49-1.49-2.73-2.92a12.13,12.13,0,0,0-1.55,5.71v.5a11.78,11.78,0,0,0,2.79,7.39,9.72,9.72,0,0,0,2.36,2.11v.06a11.9,11.9,0,0,1-5.28-1.43v.31a11.56,11.56,0,0,0,3.6,8.32A11,11,0,0,0,26,50.31a7,7,0,0,0,1.62.5q0,.13-1.3.31a8.7,8.7,0,0,1-1.24.12h-.68a12.17,12.17,0,0,1-2-.19,11.76,11.76,0,0,0,4.84,6.27,11.4,11.4,0,0,0,6.15,1.93A18.16,18.16,0,0,1,30,61.49a23.71,23.71,0,0,1-10.87,2.8h-.81a24.1,24.1,0,0,1-2.42-.12,30.51,30.51,0,0,0,7.2,3.48,33.53,33.53,0,0,0,11,1.86,34.24,34.24,0,0,0,16.64-4.16A34.78,34.78,0,0,0,56,61.55a33,33,0,0,0,3.73-3.79,37.38,37.38,0,0,0,4-6A35.06,35.06,0,0,0,65.83,47a33.75,33.75,0,0,0,1.93-10.74v-2a24.15,24.15,0,0,0,5.9-6.09H73.6a29.23,29.23,0,0,1-4.66,1.49q-1.8.31-2,.31v-.06a11,11,0,0,0,2.48-1.93A12.56,12.56,0,0,0,72,23.41a23,23,0,0,1-4.84,2.17,15.45,15.45,0,0,1-2.67.68,10.41,10.41,0,0,0-2.55-2,11.41,11.41,0,0,0-6-1.74H55.9A11.74,11.74,0,0,0,47.57,26,11.53,11.53,0,0,0,44,34.28Z"/></g></g></svg>