<svg xmlns="http://www.w3.org/2000/svg" viewBox="0 0 87.45 87.45"><defs><style>.cls-1{fill:#ff0aba;}</style></defs><title>youtube</title><g id="Layer_2" data-name="Layer 2"><g id="TYPO"><path class="cls-1" d="M9.94,0H77.51a9.61,9.61,0,0,1,8.38,4.66,11.32,11.32,0,0,1,1.55,5.9V76.89a10.4,10.4,0,0,1-4.35,8.82,9.34,9.34,0,0,1-5.59,1.74H9.94a9.61,9.61,0,0,1-8.39-4.66A11.31,11.31,0,0,1,0,76.89V10.56A10.4,10.4,0,0,1,4.35,1.74,9.34,9.34,0,0,1,9.94,0Zm21.8,22.23q-6.21.13-9.81.43a18.4,18.4,0,0,0-2.79.31,8.24,8.24,0,0,0-3.48,1.49,7,7,0,0,0-1.49,1.43A11.94,11.94,0,0,0,13,28.32,20.51,20.51,0,0,0,12,31.61,98.93,98.93,0,0,0,11.43,42V47.2q0,3.73.5,8.94a12.62,12.62,0,0,0,.5,2.8,13.88,13.88,0,0,0,1.06,3.17,6.9,6.9,0,0,0,3.17,3.17,10.94,10.94,0,0,0,1.8.68q.87.19,2.42.43,1.12.19,6,.43,11.55.31,16.83.31,4.78,0,12.36-.19,9.87-.37,11.3-.62a10.64,10.64,0,0,0,2.67-.87,7.13,7.13,0,0,0,1.3-.87,6.4,6.4,0,0,0,1.37-1.24A8.83,8.83,0,0,0,74,60.86a18,18,0,0,0,.87-3.11,92,92,0,0,0,.68-10.56V42A98.13,98.13,0,0,0,75,31.61a17.63,17.63,0,0,0-.81-2.92,8.61,8.61,0,0,0-1.74-3.23,6,6,0,0,0-1.24-1,6.54,6.54,0,0,0-1.61-1,9.44,9.44,0,0,0-1.8-.56,39.6,39.6,0,0,0-4.41-.43Q53.6,22,43.47,22,38.38,22,31.74,22.23ZM37.14,35,51,42.23A32.55,32.55,0,0,1,54.16,44L51.3,45.4q-.12.13-14.47,7.52v-18Z"/></g></g></svg>